<?xml version="1.0" encoding="utf-8"?>
<!-- Generator: Adobe Illustrator 16.0.0, SVG Export Plug-In . SVG Version: 6.00 Build 0)  -->
<!DOCTYPE svg PUBLIC "-//W3C//DTD SVG 1.1//EN" "http://www.w3.org/Graphics/SVG/1.1/DTD/svg11.dtd">
<svg class="main-icon" version="1.1" id="Layer_1" xmlns="http://www.w3.org/2000/svg" xmlns:xlink="http://www.w3.org/1999/xlink" x="0px" y="0px"
	 height="250px" viewBox="0 0 300 300" enable-background="new 0 0 300 300" xml:space="preserve">
<g>
	<path fill-rule="evenodd" clip-rule="evenodd" d="M103.044,102.519c0.247-16.558,6.708-30.287,19.124-40.961
		c10.519-9.04,23.008-13.146,36.914-12.574c9.25,0.382,17.838,3.057,25.711,7.938c7.877,4.888,14.105,11.385,18.641,19.469
		c4.535,8.078,6.773,16.773,6.824,26.129c0.211,0,0.42-0.002,0.627,0c2.879,0,5.756-0.01,8.631,0.004
		c6.926,0.037,13.189,5.387,14.295,12.23c0.156,0.975,0.232,1.972,0.236,2.956c0.01,30.997,0.01,61.994,0,92.99
		c0,0.488,0.123,0.836,0.482,1.191c3.814,3.787,7.623,7.59,11.41,11.404c2.18,2.195,2.398,5.426,0.545,7.855
		c-1.152,1.512-2.703,2.326-4.607,2.326c-10.596,0.014-21.191,0.014-31.787,0.008c-3.158-0.008-5.791-2.693-5.791-5.902
		c-0.008-11.824-0.004-23.65-0.004-35.479c0-0.238,0-0.475,0-0.736c-0.105-0.006-0.178-0.023-0.252-0.014
		c-1.111,0.15-2.219,0.336-3.334,0.441c-0.383,0.037-0.59,0.123-0.764,0.48c-1.301,2.646-2.631,5.283-3.947,7.92
		c-1.176,2.357-3.066,3.535-5.719,3.529c-6.961-0.014-13.932-0.006-20.893-0.004c-0.24,0-0.477-0.002-0.764-0.002
		c-0.018,0.168-0.047,0.316-0.047,0.467c-0.004,1.826,0.012,3.652-0.012,5.477c-0.002,0.383,0.125,0.549,0.48,0.678
		c1.482,0.545,2.711,1.457,3.721,2.672c2.943,3.539,5.908,7.064,8.834,10.613c3.063,3.711,1.1,8.982-3.639,9.814
		c-0.289,0.051-0.596,0.045-0.889,0.045c-13.615,0-27.227,0.006-40.838-0.004c-2.42-0.004-4.237-1.123-5.316-3.277
		c-1.104-2.203-0.915-4.387,0.621-6.305c2.42-3.023,4.935-5.963,7.406-8.939c0.545-0.654,1.097-1.305,1.642-1.965
		c1.003-1.223,2.249-2.098,3.718-2.684c0.188-0.076,0.432-0.32,0.439-0.492c0.029-2.002,0.018-4.006,0.018-6.1
		c-0.25,0-0.482,0-0.708,0c-7.046,0-14.091,0.002-21.133,0c-2.551-0.002-4.394-1.17-5.538-3.426
		c-1.344-2.65-2.663-5.311-3.979-7.975c-0.174-0.354-0.367-0.502-0.796-0.523c-1.174-0.061-2.344-0.209-3.568-0.326
		c0,0.125,0,0.355,0,0.586c0,11.75,0,23.496-0.003,35.244c0,3.191-1.923,5.527-5.04,6.119c-0.309,0.059-0.632,0.066-0.944,0.066
		c-10.479,0.004-20.959,0.004-31.435,0c-2.467,0-4.626-1.389-5.523-3.619c-0.963-2.406-0.577-4.637,1.232-6.486
		c3.771-3.855,7.612-7.65,11.438-11.457c0.363-0.361,0.523-0.717,0.523-1.234c-0.015-31.096-0.015-62.192-0.012-93.287
		c0-6.375,4.001-11.987,10.004-14.071c1.529-0.53,3.1-0.815,4.724-0.813C96.999,102.525,99.993,102.519,103.044,102.519z
		 M109.04,108.49c0,0.262,0,0.457,0,0.654c0,24.444-0.003,48.887,0,73.333c0,2.18,1.207,3.387,3.38,3.387
		c29.504,0.002,59.006,0.002,88.51,0c2.137,0,3.361-1.217,3.361-3.346c0.004-24.465,0.004-48.929,0.004-73.392
		c0-0.209,0-0.418,0-0.636C172.508,108.49,140.808,108.49,109.04,108.49z M108.931,102.48c31.896,0,63.61,0,95.323,0
		c0.164-15.347-8.047-33.396-26.48-42.631c-6.93-3.473-14.303-5.092-22.041-4.936c-7.748,0.156-15.026,2.094-21.795,5.933
		c0.215,0,0.429,0,0.64,0c4.324,0,8.651-0.002,12.979,0.001c0.275,0.002,0.56,0,0.824,0.063c1.545,0.359,2.519,1.766,2.314,3.332
		c-0.188,1.47-1.468,2.553-3.029,2.553c-7.264,0.002-14.527,0.004-21.787-0.008c-0.4,0-0.702,0.1-1.007,0.375
		c-3.725,3.359-6.856,7.203-9.386,11.534c-3.081,5.276-5.08,10.942-5.934,16.989C109.236,97.916,109.134,100.175,108.931,102.48z
		 M85.269,138.261c0,23.825,0,47.604,0,71.368c5.959,0,11.878,0,17.79,0c0-23.813,0-47.576,0-71.368
		C97.122,138.261,91.213,138.261,85.269,138.261z M210.287,138.259c0,23.829,0,47.608,0,71.37c5.959,0,11.881,0,17.789,0
		c0-23.814,0-47.578,0-71.37C222.139,138.259,216.23,138.259,210.287,138.259z M193.496,191.85c-24.596,0-49.09,0-73.643,0
		c0.117,0.244,0.2,0.439,0.295,0.631c0.781,1.559,1.584,3.104,2.329,4.682c0.229,0.49,0.509,0.621,1.028,0.621
		c22.106-0.014,44.209-0.014,66.317-0.014c0.137,0,0.287,0.031,0.414-0.008c0.148-0.045,0.348-0.119,0.406-0.238
		C191.596,195.658,192.525,193.783,193.496,191.85z M85.225,132.244c5.988,0,11.911,0,17.819,0c0-7.944,0-15.85,0-23.762
		c-3.161,0-6.278-0.005-9.389,0.008c-0.393,0.002-0.793,0.068-1.178,0.15c-4.379,0.932-7.245,4.484-7.253,8.979
		c-0.007,3.632,0,7.262,0,10.894C85.225,129.741,85.225,130.968,85.225,132.244z M210.268,132.242c5.971,0,11.887,0,17.838,0
		c0-0.159,0-0.275,0-0.393c0-4.821,0.008-9.643-0.008-14.463c0-0.553-0.059-1.113-0.17-1.653c-0.904-4.335-4.412-7.222-8.842-7.26
		c-2.818-0.025-5.635-0.005-8.451-0.004c-0.115,0-0.229,0.015-0.367,0.024C210.268,116.421,210.268,124.31,210.268,132.242z
		 M177.053,227.51c-0.119-0.166-0.191-0.275-0.275-0.373c-2.855-3.428-5.723-6.85-8.576-10.281
		c-0.727-0.875-1.641-1.238-2.768-1.234c-5.836,0.014-11.664,0.014-17.5,0c-1.199-0.008-2.134,0.414-2.899,1.344
		c-2.762,3.352-5.553,6.68-8.328,10.018c-0.131,0.156-0.251,0.32-0.411,0.527C149.925,227.51,163.445,227.51,177.053,227.51z
		 M71.618,227.5c10.563,0,20.998,0,31.427,0c0-3.973,0-7.908,0-11.84c-0.095-0.014-0.152-0.033-0.211-0.033
		c-6.326,0-12.652-0.006-18.975,0.016c-0.236,0-0.52,0.166-0.697,0.342c-1.624,1.596-3.234,3.213-4.848,4.826
		C76.113,223.008,73.911,225.207,71.618,227.5z M241.703,227.51c-0.125-0.137-0.18-0.211-0.244-0.275
		c-3.791-3.787-7.576-7.572-11.385-11.346c-0.174-0.174-0.523-0.254-0.791-0.254c-6.127-0.014-12.26-0.008-18.391-0.008
		c-0.207,0-0.418,0-0.621,0c0,4.014,0,7.93,0,11.883C220.732,227.51,231.16,227.51,241.703,227.51z M162.6,203.764
		c-3.994,0-7.93,0-11.861,0c0,1.982,0,3.92,0,5.879c3.964,0,7.9,0,11.861,0C162.6,207.672,162.6,205.734,162.6,203.764z"/>
	<path fill-rule="evenodd" clip-rule="evenodd" d="M156.604,179.906c-3.906,0-7.816,0.002-11.725,0
		c-3.456-0.002-6.064-2.598-6.068-6.043c-0.004-7.877-0.004-15.756,0-23.633c0.004-3.434,2.583-6.031,6.006-6.035
		c7.899-0.009,15.795-0.009,23.692,0c3.426,0.004,6.01,2.602,6.014,6.033c0.004,7.877,0.004,15.756,0,23.633
		c-0.004,3.445-2.617,6.043-6.068,6.045C164.504,179.908,160.557,179.906,156.604,179.906z M168.547,150.183
		c-7.949,0-15.854,0-23.742,0c0,7.946,0,15.85,0,23.743c7.935,0,15.824,0,23.742,0C168.547,166.004,168.547,158.115,168.547,150.183
		z"/>
	<path fill-rule="evenodd" clip-rule="evenodd" d="M156.662,132.286c8.928,0,17.855-0.001,26.779,0.002
		c1.229,0,2.137,0.565,2.682,1.651c0.531,1.066,0.426,2.122-0.275,3.085c-0.568,0.783-1.359,1.208-2.338,1.208
		c-17.895,0.002-35.787,0.004-53.686-0.002c-1.631,0-2.921-1.328-2.921-2.969c0-1.649,1.275-2.97,2.914-2.972
		C138.766,132.283,147.716,132.286,156.662,132.286z"/>
	<path fill-rule="evenodd" clip-rule="evenodd" d="M120.944,120.397c0,0.989,0.007,1.981,0,2.972
		c-0.015,1.674-1.326,2.963-2.994,2.958c-1.636-0.005-2.943-1.299-2.95-2.941c-0.015-2.002-0.012-4.004,0-6.005
		c0.007-1.68,1.312-2.957,2.99-2.953c1.639,0.003,2.936,1.289,2.954,2.936C120.951,118.375,120.944,119.384,120.944,120.397z"/>
	<path fill-rule="evenodd" clip-rule="evenodd" d="M135.827,120.391c0,1.013,0.007,2.022-0.004,3.034
		c-0.018,1.626-1.348,2.905-2.99,2.901c-1.606-0.003-2.936-1.282-2.95-2.878c-0.015-2.04-0.015-4.082,0-6.124
		c0.011-1.608,1.318-2.889,2.929-2.897c1.657-0.01,2.986,1.252,3.012,2.872C135.837,118.332,135.827,119.361,135.827,120.391z"/>
	<path fill-rule="evenodd" clip-rule="evenodd" d="M144.761,120.33c0-0.99-0.007-1.982,0.004-2.973
		c0.015-1.646,1.315-2.927,2.954-2.93c1.649-0.004,2.976,1.268,2.987,2.9c0.014,2.021,0.011,4.043,0,6.064
		c-0.012,1.664-1.341,2.945-3.016,2.935c-1.625-0.011-2.918-1.312-2.926-2.965C144.754,122.351,144.761,121.341,144.761,120.33z"/>
	<path fill-rule="evenodd" clip-rule="evenodd" d="M168.568,120.427c0,0.992,0.012,1.982-0.004,2.975
		c-0.014,1.635-1.328,2.923-2.965,2.925c-1.641,0.002-2.965-1.282-2.975-2.914c-0.012-2.021-0.012-4.042,0-6.064
		c0.01-1.641,1.318-2.919,2.965-2.921s2.957,1.273,2.975,2.908C168.58,118.368,168.568,119.398,168.568,120.427z"/>
	<path fill-rule="evenodd" clip-rule="evenodd" d="M177.504,120.386c0-1.011-0.008-2.022,0-3.033
		c0.018-1.644,1.318-2.924,2.961-2.926c1.65-0.002,2.973,1.27,2.984,2.902c0.014,2.022,0.014,4.045,0,6.066
		c-0.008,1.637-1.324,2.929-2.959,2.931c-1.643,0.004-2.965-1.278-2.986-2.909C177.496,122.408,177.504,121.398,177.504,120.386z"/>
	<path fill-rule="evenodd" clip-rule="evenodd" d="M198.336,120.366c0,1.011,0.01,2.021-0.004,3.032
		c-0.016,1.637-1.326,2.927-2.961,2.929c-1.643,0.002-2.969-1.278-2.98-2.909c-0.01-2.021-0.01-4.043,0-6.065
		c0.012-1.645,1.316-2.923,2.961-2.925c1.646-0.002,2.963,1.271,2.98,2.904C198.346,118.341,198.336,119.354,198.336,120.366z"/>
	<path fill-rule="evenodd" clip-rule="evenodd" d="M168.568,84.633c0.004,6.591-5.309,11.925-11.881,11.927
		c-6.595,0.002-11.922-5.307-11.926-11.883c-0.003-6.65,5.306-11.924,11.999-11.922C163.254,72.755,168.564,78.1,168.568,84.633z
		 M156.68,78.708c-3.256-0.009-5.956,2.676-5.966,5.932c-0.011,3.241,2.693,5.959,5.933,5.971c3.242,0.012,5.959-2.693,5.971-5.939
		S159.932,78.718,156.68,78.708z"/>
	<path fill-rule="evenodd" clip-rule="evenodd" d="M186.428,84.673c-0.004,3.303-2.67,5.942-5.994,5.934
		c-3.271-0.008-5.908-2.674-5.906-5.969c0.004-3.312,2.656-5.937,5.996-5.932C183.797,78.714,186.432,81.375,186.428,84.673z"/>
	<path fill-rule="evenodd" clip-rule="evenodd" d="M165.658,60.847c1.963,0,3.924-0.007,5.887,0.002
		c1.686,0.006,2.98,1.305,2.98,2.975c-0.004,1.662-1.305,2.967-2.988,2.969c-3.963,0.006-7.928,0.007-11.896,0
		c-1.678-0.002-2.971-1.309-2.971-2.977s1.289-2.961,2.979-2.967C161.654,60.84,163.652,60.847,165.658,60.847z"/>
</g>
</svg>
